<svg xmlns="http://www.w3.org/2000/svg" xmlns:xlink="http://www.w3.org/1999/xlink" version="1.1" id="Layer_1" x="0px" y="0px" width="100.0px" height="100px" viewBox="0 0 300 300" enable-background="new 0 0 300 300" xml:space="preserve">
<style>
	.style0 {
		fill: #81C8FF;
	}
</style><g>
	<path d="M38.585 148.136c6.581 6.6 17.3 6.6 23.8 0l69.427-69.426l0 182.4 c0 9.3 7.5 16.9 16.9 16.852c9.307 0 16.851-7.544 16.851-16.852V78.633l71.011 71.01c6.58 6.6 17.3 6.6 23.8 0 c6.58-6.582 6.58-17.25 0-23.83l-96.611-96.609c-0.499-0.499-1.03-0.95-1.573-1.371c-3.067-4.126-7.97-6.811-13.508-6.811 c-5.367 0-10.139 2.519-13.224 6.43c-0.092 0.085-0.186 0.16-0.275 0.249L38.585 124.3 C32.008 130.9 32 141.6 38.6 148.136z" class="style0"/>
</g>
</svg>
